<?xml version="1.0" encoding="utf-8"?>
<!-- Generator: Adobe Illustrator 16.0.0, SVG Export Plug-In . SVG Version: 6.00 Build 0)  -->
<!DOCTYPE svg PUBLIC "-//W3C//DTD SVG 1.1//EN" "http://www.w3.org/Graphics/SVG/1.1/DTD/svg11.dtd">
<svg version="1.1" id="Layer_1" xmlns="http://www.w3.org/2000/svg" xmlns:xlink="http://www.w3.org/1999/xlink" x="0px" y="0px"
	 width="45px" height="45px" viewBox="0 0 45 45" enable-background="new 0 0 45 45" xml:space="preserve">
<rect fill="#FFFFFF" width="45" height="22"/>
<path fill="#313131" d="M22.206,25.987c0,0-1.186,14.772-6.38,16.102c-5.193,1.329-11.154-2.003-6.245-8.13
	c4.91-6.126,11.52-9.8,12.987-10.195"/>
<path fill="#313131" d="M19.407,21.141c0,0-13.218-6.303-16.937-2.391c-3.719,3.912-3.836,10.816,3.843,9.541
	c7.677-1.274,14.105-5.267,15.174-6.361"/>
<path fill="#313131" d="M25.68,25.391c0,0,11.346,9.334,9.496,14.434c-1.852,5.102-7.924,8.215-10.137,0.646
	c-2.212-7.571-1.471-15.183-0.965-16.635"/>
<path fill="#313131" d="M26.617,21.678c0,0,14.256-3.212,17.041,1.431c2.785,4.644,1.41,11.407-5.809,8.456
	c-7.217-2.949-12.627-8.273-13.432-9.578"/>
<path fill="#FDD301" d="M24.969,18.987c0,0,3.855-14.296,9.203-14.627c5.348-0.331,10.596,4.062,4.656,9.162
	c-5.941,5.098-13.105,7.468-14.619,7.583"/>
<path fill="#313131" d="M20.995,19.459c0,0-11.677-8.901-10.014-14.069c1.664-5.167,7.621-8.505,10.106-1.023
	c2.485,7.482,2.02,15.117,1.569,16.587"/>
</svg>
