<?xml version="1.0" encoding="utf-8"?>
<!-- Generator: Adobe Illustrator 16.0.0, SVG Export Plug-In . SVG Version: 6.00 Build 0)  -->
<!DOCTYPE svg PUBLIC "-//W3C//DTD SVG 1.1//EN" "http://www.w3.org/Graphics/SVG/1.1/DTD/svg11.dtd">
<svg version="1.1" id="Layer_1" xmlns="http://www.w3.org/2000/svg" xmlns:xlink="http://www.w3.org/1999/xlink" x="0px" y="0px"
	 width="355px" height="65px" viewBox="0 0 355 65" enable-background="new 0 0 355 65" xml:space="preserve">
<path fill="#D71920" d="M300.47,28.979c0,10.848-8.251,18.367-17.645,16.913c-8.629-1.343-15.124-9.886-15.124-19.194
	c0-9.295,6.495-16.938,15.124-17.074C292.219,9.465,300.47,18.131,300.47,28.979z"/>
<polygon fill="#D1D3D4" points="248.419,45.424 248.419,21.916 249.247,21.398 249.247,45.474 "/>
<polygon fill="#A7A9AC" points="250.108,23.752 252.22,25.269 253.582,24.677 250.075,22.569 "/>
<polygon fill="#FFFFFF" points="249.247,45.597 250.278,45.782 250.278,22.298 249.247,22.236 "/>
<polygon fill="#D1D3D4" points="253.188,24.554 252.146,25.22 252.146,46.128 253.245,46.325 "/>
<polygon fill="#FFFFFF" points="254.038,25.022 254.038,23.765 249.247,21.398 249.247,22.421 "/>
<polygon fill="#FFFFFF" points="253.187,46.312 254.038,46.473 254.038,24.344 253.187,24.295 "/>
<polygon fill="#D1D3D4" points="259.182,47.385 259.182,17.86 260.125,17.244 260.125,47.446 "/>
<polygon fill="#A7A9AC" points="261.104,19.894 263.511,21.571 265.066,20.855 261.067,18.55 "/>
<polygon fill="#FFFFFF" points="260.125,47.582 261.299,47.791 261.299,18.23 260.125,18.205 "/>
<polygon fill="#D1D3D4" points="264.617,20.745 263.429,21.509 263.429,48.136 264.682,48.358 "/>
<polygon fill="#FFFFFF" points="265.588,21.238 265.588,19.808 260.125,17.244 260.125,18.415 "/>
<polygon fill="#FFFFFF" points="264.615,48.347 265.588,48.52 265.588,20.474 264.615,20.424 "/>
<polygon fill="#FFFFFF" points="274.317,50.133 271.944,49.703 271.944,19.709 274.317,19.795 "/>
<polygon fill="#FFFFFF" points="284.138,51.933 281.529,51.453 281.529,20.03 284.138,20.116 "/>
<polygon fill="#D1D3D4" points="333.81,61.044 333.81,26.193 332.013,25.293 332.013,60.735 "/>
<polygon fill="#A7A9AC" points="330.187,28.548 325.888,30.25 323.237,29.127 330.257,26.834 "/>
<polygon fill="#FFFFFF" points="332.013,60.735 329.832,60.341 329.832,26.403 332.013,26.514 "/>
<polygon fill="#D1D3D4" points="323.992,29.041 326.031,30.188 326.031,59.639 323.881,59.244 "/>
<polygon fill="#FFFFFF" points="322.368,29.497 322.368,27.784 332.013,25.293 332.013,26.785 "/>
<polygon fill="#FFFFFF" points="323.994,59.269 322.371,58.973 322.371,28.573 323.994,28.671 "/>
<polygon fill="#D1D3D4" points="313.271,57.209 313.271,19.241 311.728,18.402 311.728,57.012 "/>
<polygon fill="#A7A9AC" points="310.155,21.669 306.452,23.481 304.165,22.434 310.216,19.98 "/>
<polygon fill="#FFFFFF" points="311.728,57.012 309.85,56.667 309.85,19.562 311.728,19.61 "/>
<polygon fill="#D1D3D4" points="304.817,22.335 306.575,23.42 306.575,56.051 304.721,55.705 "/>
<polygon fill="#FFFFFF" points="303.415,22.84 303.415,21.139 311.728,18.402 311.728,19.882 "/>
<polygon fill="#FFFFFF" points="304.817,55.755 303.416,55.497 303.416,21.916 304.817,21.965 "/>
<polygon fill="#FFFFFF" points="292.076,53.412 294.952,53.943 294.952,20.474 292.076,20.387 "/>
<linearGradient id="SVGID_1_" gradientUnits="userSpaceOnUse" x1="283.9863" y1="20.4736" x2="283.9863" y2="1.8838">
	<stop  offset="0" style="stop-color:#CCCCCC"/>
	<stop  offset="1" style="stop-color:#999999"/>
</linearGradient>
<polygon fill="url(#SVGID_1_)" points="297.372,2.007 297.372,1.896 269.168,3.289 269.168,3.375 268.259,3.424 271.944,19.709 
	274.317,19.783 271.425,5.865 281.098,5.52 281.529,20.03 284.138,20.116 284.583,5.397 295.6,5.002 292.076,20.375 294.952,20.474 
	299.715,1.884 "/>
<polygon fill="#FFFFFF" points="297.972,0.001 269.505,1.69 268.27,3.432 299.728,1.883 "/>
<rect y="45.079" fill="#D1D3D4" width="247.465" height="0.235"/>
<polygon fill="#D1D3D4" points="355,64.767 247.455,45.067 247.407,45.301 355,65 "/>
</svg>
