<?xml version="1.0" encoding="utf-8"?>
<!-- Generator: Adobe Illustrator 16.0.0, SVG Export Plug-In . SVG Version: 6.00 Build 0)  -->
<!DOCTYPE svg PUBLIC "-//W3C//DTD SVG 1.1//EN" "http://www.w3.org/Graphics/SVG/1.1/DTD/svg11.dtd">
<svg version="1.1" id="Layer_1" xmlns="http://www.w3.org/2000/svg" xmlns:xlink="http://www.w3.org/1999/xlink" x="0px" y="0px"
	 width="50px" height="50px" viewBox="0 0 50 50" enable-background="new 0 0 50 50" xml:space="preserve">
<rect x="24.901" y="25" fill="#808080" width="25.099" height="24.983"/>
<circle fill="#FFFFFF" cx="24.996" cy="25" r="24.996"/>
<g>
	<path fill="#808080" d="M19.483,28.059c0-1.994,1.116-3.935,3.315-5.762c1.945-1.596,4.114-2.712,6.444-3.321l2.262-0.591
		l-2.27-0.563c-0.742-0.184-1.602-0.535-2.5-1.012c-0.805-0.536-1.626-1.055-2.463-1.558l-0.119-0.071l-0.137-0.011
		c-0.99-0.085-1.761-0.246-2.293-0.476c-0.234-0.364-0.35-0.749-0.35-1.172c0-0.614,0.178-1.172,0.543-1.707
		c0.355-0.52,0.787-0.85,1.321-1.008l2.148-0.645l-6.382-1.48l-0.117,0.02c-3.289,0.554-6.31,2.537-8.979,5.893
		c-2.662,3.344-4.012,6.751-4.012,10.127c0,3.735,1.521,6.762,4.526,8.996c2.682,1.959,5.964,2.953,9.76,2.953
		c1.905,0,3.582-0.339,4.985-1.005l1.451-0.688l-1.549-0.423C21.31,33.529,19.483,31.405,19.483,28.059z M17.408,14.279
		c0.368,1.273,0.766,2.175,1.212,2.75c0.467,0.583,1.088,1.039,1.857,1.362c-1.348,0.777-2.489,1.88-3.408,3.294
		c-1.236,1.898-1.865,3.958-1.865,6.125c0,1.96,0.582,3.729,1.731,5.276c-1.545-0.48-2.886-1.17-4-2.056
		c-1.826-1.455-2.713-3.177-2.713-5.261c0-2.356,0.761-4.684,2.263-6.912C13.845,16.841,15.498,15.303,17.408,14.279z"/>
	<path fill="#808080" d="M47.773,38.518l-0.139-0.133c-3.742-3.562-7.011-6.224-9.742-7.932c3.977-1.516,5.992-4.225,5.992-8.067
		c0-2.486-1.004-4.66-2.975-6.458c-1.172-1.104-3.027-2.295-5.67-3.635c-0.223-1.843-1.367-2.85-3.252-2.85
		c-1.005,0-1.816,0.345-2.412,1.023c-0.578,0.657-0.871,1.483-0.871,2.457c0,1.246,1.096,2.443,3.357,3.668
		c1.924,0.994,3.833,1.99,5.668,2.95c1.84,1.238,2.773,2.548,2.773,3.89c0,0.734-0.52,1.378-1.582,1.967
		c-1,0.545-1.975,0.821-2.9,0.821c-1.377,0-3.26-0.486-5.602-1.449c-3.154-1.27-4.041-2.305-4.23-2.951l-1.144,0.333l2.539,8.812
		l0.355,0.07c3.235,0.648,6.757,2.1,10.462,4.309c3.455,2.086,6.479,4.465,8.986,7.072l1.379,1.434L47.773,38.518z"/>
</g>
<g>
	<rect x="37.152" y="38.369" fill="#313131" width="2.098" height="7.828"/>
	<polygon fill="#313131" points="40.341,38.369 40.341,40.351 42.576,40.351 42.576,46.197 44.676,46.197 44.676,40.351 
		46.912,40.351 46.912,38.369 	"/>
</g>
</svg>
