<?xml version="1.0" encoding="utf-8"?>
<!-- Generator: Adobe Illustrator 16.0.0, SVG Export Plug-In . SVG Version: 6.00 Build 0)  -->
<!DOCTYPE svg PUBLIC "-//W3C//DTD SVG 1.1//EN" "http://www.w3.org/Graphics/SVG/1.1/DTD/svg11.dtd">
<svg version="1.1" id="Layer_1" xmlns="http://www.w3.org/2000/svg" xmlns:xlink="http://www.w3.org/1999/xlink" x="0px" y="0px"
	 width="50px" height="50px" viewBox="0 0 50 50" enable-background="new 0 0 50 50" xml:space="preserve">
<rect x="24.901" y="25" width="25.099" height="24.983"/>
<circle fill="#E11E1E" cx="24.996" cy="25" r="24.996"/>
<g>
	<path d="M19.482,28.059c0-1.995,1.116-3.936,3.315-5.763c1.945-1.596,4.114-2.712,6.443-3.321l2.263-0.591l-2.27-0.563
		c-0.742-0.184-1.603-0.535-2.501-1.012c-0.805-0.536-1.625-1.055-2.462-1.558l-0.119-0.071l-0.137-0.011
		c-0.99-0.085-1.761-0.246-2.293-0.476c-0.234-0.364-0.35-0.749-0.35-1.172c0-0.614,0.178-1.172,0.543-1.707
		c0.355-0.52,0.787-0.85,1.321-1.008l2.148-0.645l-6.382-1.48l-0.117,0.02c-3.289,0.554-6.31,2.537-8.979,5.893
		c-2.662,3.344-4.012,6.751-4.012,10.127c0,3.735,1.521,6.761,4.526,8.996c2.682,1.959,5.964,2.953,9.76,2.953
		c1.905,0,3.582-0.339,4.985-1.005l1.45-0.688l-1.549-0.424C21.31,33.529,19.482,31.404,19.482,28.059z M17.407,14.278
		c0.368,1.273,0.766,2.175,1.212,2.75c0.467,0.583,1.088,1.039,1.857,1.362c-1.348,0.777-2.489,1.88-3.408,3.294
		c-1.236,1.898-1.865,3.958-1.865,6.124c0,1.961,0.582,3.73,1.731,5.277c-1.545-0.48-2.886-1.17-4-2.057
		c-1.826-1.455-2.713-3.176-2.713-5.26c0-2.356,0.761-4.684,2.263-6.912C13.844,16.84,15.498,15.302,17.407,14.278z"/>
	<path d="M47.772,38.517l-0.139-0.132c-3.741-3.563-7.01-6.225-9.742-7.933c3.977-1.517,5.992-4.225,5.992-8.067
		c0-2.486-1.004-4.66-2.975-6.458c-1.171-1.104-3.027-2.295-5.67-3.635c-0.223-1.843-1.367-2.85-3.252-2.85
		c-1.004,0-1.815,0.345-2.411,1.023c-0.579,0.657-0.871,1.483-0.871,2.457c0,1.246,1.095,2.443,3.357,3.668
		c1.923,0.994,3.833,1.99,5.667,2.95c1.841,1.238,2.773,2.548,2.773,3.89c0,0.734-0.519,1.378-1.581,1.967
		c-1.001,0.545-1.976,0.822-2.901,0.822c-1.376,0-3.26-0.487-5.602-1.45c-3.153-1.27-4.041-2.305-4.229-2.951l-1.144,0.333
		l2.54,8.812l0.355,0.07c3.235,0.648,6.756,2.099,10.461,4.309c3.455,2.087,6.479,4.465,8.987,7.072l1.378,1.433L47.772,38.517z"/>
</g>
<g>
	<rect x="37.151" y="38.367" fill="#FFFFFF" width="2.099" height="7.828"/>
	<polygon fill="#FFFFFF" points="40.341,38.367 40.341,40.35 42.576,40.35 42.576,46.195 44.676,46.195 44.676,40.35 46.912,40.35 
		46.912,38.367 	"/>
</g>
</svg>
